<svg width="25" height="23" viewBox="0 0 25 23" fill="none" xmlns="http://www.w3.org/2000/svg">
<path d="M2.01625 7.24363C1.92578 8.19032 -0.0875025 9.52409 0.00295868 12.9006C0.0934199 16.2771 2.75677 22.1697 12.1458 22.3191C21.5348 22.4664 24.9702 16.5738 24.9997 12.5156C25.027 8.75412 23.1947 8.00729 22.9864 7.03746C22.8097 6.20859 24.4085 2.41763 20.8238 1.0544C16.5931 -0.554965 15.0174 3.51158 14.8996 3.59994C14.7818 3.6883 13.6268 3.7472 12.6191 3.7472C11.6114 3.7472 10.5154 3.7472 10.3976 3.62939C10.2798 3.51158 7.70268 -0.576002 3.97063 1.14066C0.469991 2.75423 2.07515 6.62092 2.01625 7.24363Z" fill="#B7D019"/>
<path d="M20.7228 5.97922C20.7228 7.0921 20.0917 8.03247 19.0356 7.9925C18.1246 7.95884 17.3862 7.09 17.3862 5.97922C17.3862 4.86844 18.1246 3.98276 19.0356 3.96593C20.1106 3.94489 20.7228 4.86633 20.7228 5.97922Z" fill="#2F2F2F"/>
<path d="M7.8499 5.82138C7.90881 7.24351 7.21878 7.95458 6.1627 7.93354C5.27491 7.91671 4.57226 7.26245 4.55333 5.89922C4.5365 4.77581 4.96777 3.90486 6.1627 3.86489C7.05048 3.83754 7.80362 4.70008 7.8499 5.82138Z" fill="#2F2F2F"/>
<path d="M10.2483 10.4266C10.0779 10.8032 9.60451 10.921 9.28685 10.738C8.97129 10.555 8.88503 10.0585 9.0912 9.70083C9.29737 9.34319 9.64869 9.2885 9.90535 9.38948C10.2483 9.52412 10.5007 9.86913 10.2483 10.4266Z" fill="#2F2F2F"/>
<path d="M15.9368 9.80609C16.0988 10.1974 15.9031 10.656 15.5287 10.7675C15.1542 10.879 14.7524 10.6392 14.6325 10.2332C14.5126 9.82713 14.6619 9.4737 15.0259 9.32854C15.2636 9.23597 15.697 9.22756 15.9368 9.80609Z" fill="#2F2F2F"/>
<path d="M4.81006 13.5422L4.89 14.1144C4.89 14.1144 7.10104 16.4243 12.4319 16.5043C17.9017 16.5863 20.2705 13.9188 20.2705 13.9188L17.8217 12.7344C17.8217 12.7344 15.4929 13.721 12.4908 13.6621C9.48879 13.6032 6.52882 12.7344 6.52882 12.7344L4.81006 13.5422Z" fill="#FF6011"/>
<path d="M21.0404 12.1981C20.3504 11.1904 19.5194 12.1076 18.2172 12.5936C17.4956 12.8629 17.0181 13.0185 17.0181 13.0185C17.0181 13.0185 18.0889 13.2268 18.5622 13.4835C19.0356 13.7401 19.8602 14.3018 19.8602 14.3018C19.8602 14.3018 21.6211 13.048 21.0404 12.1981V12.1981Z" fill="#865B51"/>
<path d="M4.2568 12.08C3.42792 12.6333 4.89213 14.1165 4.89213 14.1165C4.89213 14.1165 5.34443 13.6999 5.95663 13.4433C6.56882 13.1866 7.59334 13.0015 7.59334 13.0015C7.59334 13.0015 6.40893 12.7343 5.72101 12.3367C5.36547 12.1347 4.73014 11.7645 4.2568 12.08Z" fill="#865B51"/>
</svg>
