<svg width="20" height="27" viewBox="0 0 20 27" fill="none" xmlns="http://www.w3.org/2000/svg">
<path d="M10.5 23.3333C10.5 22.4492 10.1488 21.6014 9.52367 20.9762C8.89855 20.3511 8.0507 19.9999 7.16664 19.9999C6.95498 19.9999 6.74998 20.0241 6.54914 20.0624L8.83331 25.8333C8.83331 25.8333 8.89248 25.9499 8.99164 26.1183C9.45473 25.816 9.83516 25.403 10.0985 24.9168C10.3619 24.4305 10.4999 23.8863 10.5 23.3333ZM9.66664 14.1666C9.66664 13.2825 9.31545 12.4347 8.69033 11.8096C8.06521 11.1844 7.21737 10.8333 6.33331 10.8333C5.14498 10.8333 4.10831 11.4599 3.51831 12.3966L5.48664 17.3783C5.76241 17.4553 6.04701 17.4962 6.33331 17.4999C8.17331 17.4999 9.66664 16.0066 9.66664 14.1666Z" fill="#BE1931"/>
<path d="M8.83333 7.49992C10.6743 7.49992 12.1667 6.00753 12.1667 4.16659C12.1667 2.32564 10.6743 0.833252 8.83333 0.833252C6.99238 0.833252 5.5 2.32564 5.5 4.16659C5.5 6.00753 6.99238 7.49992 8.83333 7.49992Z" fill="#BE1931"/>
<path d="M16.3333 4.99984C15.4493 4.99984 14.6014 5.35103 13.9763 5.97615C13.3512 6.60127 13 7.44912 13 8.33317C13 9.21723 13.3512 10.0651 13.9763 10.6902C14.6014 11.3153 15.4493 11.6665 16.3333 11.6665C16.9016 11.6665 17.4291 11.5107 17.8975 11.2598L19.4725 7.25484C19.0225 5.94567 17.7933 4.99984 16.3333 4.99984ZM11.3333 18.3332C11.3347 19.0733 11.5829 19.7918 12.0386 20.375C12.4942 20.9582 13.1314 21.3728 13.8491 21.5532L16.26 15.4223C15.7732 15.1488 15.225 15.0034 14.6666 14.9998C12.8266 14.9998 11.3333 16.4932 11.3333 18.3332ZM3.83331 7.49984C3.83331 6.61578 3.48212 5.76794 2.857 5.14281C2.23188 4.51769 1.38403 4.1665 0.499976 4.1665C0.427476 4.1665 0.359142 4.18317 0.287476 4.18817C0.745809 5.36484 1.59998 7.53484 2.59998 10.069C3.34664 9.45734 3.83331 8.53984 3.83331 7.49984Z" fill="#BE1931"/>
</svg>
