<?xml version="1.0" encoding="utf-8"?><svg viewBox="0 0 502.66 502.66" xmlns="http://www.w3.org/2000/svg" xmlns:xlink="http://www.w3.org/1999/xlink"><style>:root>svg{display:none}:root>svg:target{display:block}</style><svg viewBox="0 0 28 29" id="Component_1" xmlns="http://www.w3.org/2000/svg"><circle cx="14" cy="14.5" r="14"/><defs><linearGradient id="aa" x1="14" y1=".5" x2="14" y2="28.5" gradientUnits="userSpaceOnUse"><stop stop-color="#FFCC4D"/><stop offset="1" stop-color="#F05A2A"/></linearGradient></defs></svg><svg viewBox="0 0 28 29" id="Component_10" xmlns="http://www.w3.org/2000/svg"><circle cx="14" cy="14.5" r="14"/><path d="M10 23.438l-1-17.5c2.5-.834 9-.795 9 3 0 4.5-6.571 5-8.571 4.5"/><path d="M12 23.438l-1-17.5c2.5-.834 9-.795 9 3 0 4.5-6.571 5-8.571 4.5"/><defs><linearGradient id="ba" x1="14" y1=".5" x2="14" y2="28.5" gradientUnits="userSpaceOnUse"><stop stop-color="#C517F1"/><stop offset="0" stop-color="#BE1931"/><stop offset="1" stop-color="#F79420"/></linearGradient></defs></svg><svg viewBox="0 0 28 29" id="Component_1_(1)" xmlns="http://www.w3.org/2000/svg"><circle cx="14" cy="14.5" r="14"/><defs><linearGradient id="ca" x1="14" y1=".5" x2="14" y2="28.5" gradientUnits="userSpaceOnUse"><stop stop-color="#FFCC4D"/><stop offset=".479" stop-color="#E91ED5"/><stop offset="1" stop-color="#F05A2A"/></linearGradient></defs></svg><svg viewBox="0 0 28 29" id="Component_1_(2)" xmlns="http://www.w3.org/2000/svg"><circle cx="14" cy="14.5" r="14"/><path d="M26 8.5c-3.167-1.167-9.5-1.9-9.5 4.5s-6 4.5-9.5 4.5-2.8.1-2 6.5"/><defs><linearGradient id="da" x1="14" y1=".5" x2="14" y2="28.5" gradientUnits="userSpaceOnUse"><stop stop-color="#46F02A"/><stop offset="1" stop-color="#4301FF"/></linearGradient></defs></svg><svg viewBox="0 0 25 23" id="Component_4" xmlns="http://www.w3.org/2000/svg"><path d="M2.016 7.244C1.926 8.19-.088 9.524.003 12.9c.09 3.376 2.754 9.269 12.143 9.418 9.389.147 12.824-5.745 12.854-9.803.027-3.762-1.805-4.509-2.014-5.479-.176-.828 1.422-4.62-2.162-5.983C16.594-.555 15.017 3.512 14.9 3.6c-.118.088-1.273.147-2.28.147-1.009 0-2.105 0-2.222-.118-.118-.117-2.695-4.205-6.427-2.488C.47 2.754 2.075 6.62 2.016 7.244z"/><path d="M20.723 5.98c0 1.112-.631 2.052-1.687 2.012-.911-.033-1.65-.902-1.65-2.013 0-1.11.739-1.996 1.65-2.013 1.075-.021 1.687.9 1.687 2.013zM7.85 5.821c.059 1.423-.631 2.134-1.687 2.113-.888-.017-1.59-.672-1.61-2.035-.016-1.123.415-1.994 1.61-2.034.887-.027 1.64.835 1.687 1.956zm2.398 4.606a.697.697 0 01-.961.311c-.316-.183-.402-.68-.196-1.037.206-.358.558-.412.814-.312.343.135.596.48.343 1.038zm5.689-.621c.162.391-.034.85-.408.962-.375.111-.777-.129-.896-.535-.12-.406.029-.76.393-.904.238-.093.671-.101.91.477zM4.81 13.542l.08.572s2.211 2.31 7.542 2.39c5.47.082 7.838-2.585 7.838-2.585l-2.448-1.185s-2.33.987-5.331.928c-3.002-.059-5.962-.928-5.962-.928l-1.719.808z"/><path d="M21.04 12.198c-.69-1.008-1.52-.09-2.823.396-.721.269-1.199.425-1.199.425s1.07.208 1.544.464c.474.257 1.298.819 1.298.819s1.761-1.254 1.18-2.104zM4.257 12.08c-.83.553.635 2.037.635 2.037s.452-.417 1.065-.674c.612-.256 1.636-.441 1.636-.441s-1.184-.268-1.872-.665c-.356-.202-.99-.572-1.464-.257z"/></svg><svg viewBox="0 0 28 29" id="Component_7" xmlns="http://www.w3.org/2000/svg"><circle cx="14" cy="14.5" r="14"/><path d="M24.218 17.117C28.311 13.321 20 5 15.5 11c-2.198 2.93-1.76 6.964-7.205 7.816-5.444.852-7.674-7.518-2.305-8.444 5.37-.926 14.135 10.541 18.228 6.745z"/><defs><linearGradient id="fa" x1="14" y1=".5" x2="14" y2="28.5" gradientUnits="userSpaceOnUse"><stop stop-color="#E91ED5"/><stop offset="1" stop-color="#B03535"/></linearGradient></defs></svg><svg viewBox="0 0 28 29" id="Component_9" xmlns="http://www.w3.org/2000/svg"><circle cx="14" cy="14.5" r="14"/><path d="M21.5 22V8.5l-7 7-7.5-7V22"/><path d="M20.5 22V8.5l-7 7-7.5-7V22"/><defs><linearGradient id="ga" x1="14" y1=".5" x2="14" y2="28.5" gradientUnits="userSpaceOnUse"><stop stop-color="#014FFF"/><stop offset="1" stop-color="#A9D6E5"/></linearGradient></defs></svg><svg viewBox="0 0 121 63" id="Frame_245" xmlns="http://www.w3.org/2000/svg"><g filter="url(#ha)"><path d="M44 27.5a12.5 12.5 0 10-25 0h25zM44 27.5a12.5 12.5 0 11-25 0h25z"/></g><path d="M59.35 16.53h5.31v8.7l7.23-8.7h6.3l-8.49 10.2 9.06 10.77h-6.3l-7.8-9.27v9.27h-5.31V16.53zm27.708 21.42c-2.82 0-5.04-.66-6.66-1.98-1.6-1.32-2.4-3.19-2.4-5.61 0-2.38.71-4.26 2.13-5.64 1.44-1.38 3.51-2.07 6.21-2.07 1.72 0 3.19.33 4.41.99 1.24.64 2.17 1.53 2.79 2.67.64 1.12.96 2.39.96 3.81v1.95h-11.49c.2.8.7 1.38 1.5 1.74.8.36 1.89.54 3.27.54.94 0 1.9-.08 2.88-.24 1-.16 1.86-.38 2.58-.66v3.48c-.74.3-1.67.54-2.79.72-1.1.2-2.23.3-3.39.3zm2.46-9.18c-.08-.78-.4-1.39-.96-1.83-.56-.44-1.33-.66-2.31-.66-.96 0-1.72.23-2.28.69-.56.44-.88 1.04-.96 1.8h6.51zm10.307 14.67c-.64 0-1.31-.05-2.01-.15-.7-.08-1.22-.2-1.56-.36V39c.58.24 1.24.36 1.98.36.66 0 1.17-.15 1.53-.45.38-.28.68-.73.9-1.35l.36-.96-6.24-13.5h5.28l3.75 9.36 3.54-9.36h5.28l-5.94 15.06c-.7 1.8-1.6 3.13-2.7 3.99-1.08.86-2.47 1.29-4.17 1.29z"/><defs><filter id="ha" x="0" y="0" width="63" height="63" filterUnits="userSpaceOnUse" color-interpolation-filters="sRGB"><feFlood flood-opacity="0" result="BackgroundImageFix"/><feColorMatrix in="SourceAlpha" values="0 0 0 0 0 0 0 0 0 0 0 0 0 0 0 0 0 0 127 0" result="hardAlpha"/><feOffset dy="4"/><feGaussianBlur stdDeviation="9.5"/><feComposite in2="hardAlpha" operator="out"/><feColorMatrix values="0 0 0 0 1 0 0 0 0 1 0 0 0 0 1 0 0 0 0.25 0"/><feBlend in2="BackgroundImageFix" result="effect1_dropShadow_28_163"/><feBlend in="SourceGraphic" in2="effect1_dropShadow_28_163" result="shape"/></filter></defs></svg><svg viewBox="0 0 29 29" id="Group_(4)" xmlns="http://www.w3.org/2000/svg"><path d="M27 13.875H2S8.563 10.125 11.375 7c2.813-3.125 3.438-5 3.438-5s.624 1.875 3.437 5c2.813 3.125 8.75 6.875 8.75 6.875zM4.5 18.875h20V27h-20v-8.125zm3.125-5h13.75v5H7.625v-5z"/></svg><svg viewBox="0 0 20 27" id="Group_(5)" xmlns="http://www.w3.org/2000/svg"><path d="M10.5 23.333A3.334 3.334 0 007.167 20c-.212 0-.417.024-.618.062l2.284 5.771s.06.117.159.285a3.327 3.327 0 001.508-2.785zm-.833-9.166a3.333 3.333 0 00-3.334-3.334 3.323 3.323 0 00-2.815 1.564l1.969 4.981c.275.077.56.118.846.122a3.335 3.335 0 003.334-3.333zM8.833 7.5a3.333 3.333 0 100-6.667 3.333 3.333 0 000 6.667zm7.5-2.5a3.333 3.333 0 000 6.666 3.3 3.3 0 001.565-.406l1.575-4.005A3.323 3.323 0 0016.332 5zm-5 13.333a3.326 3.326 0 002.516 3.22l2.411-6.13A3.296 3.296 0 0014.667 15a3.335 3.335 0 00-3.334 3.333zM3.833 7.5A3.333 3.333 0 00.5 4.167c-.073 0-.14.016-.213.021C.746 5.365 1.6 7.535 2.6 10.07A3.314 3.314 0 003.833 7.5z"/></svg><svg viewBox="0 0 485 443" id="Rings" xmlns="http://www.w3.org/2000/svg"><g filter="url(#ka)"><path d="M485 218.785c0 120.832-97.953 218.785-218.785 218.785S47.43 339.617 47.43 218.785 145.383 0 266.215 0 485 97.953 485 218.785zm-381.764 0c0 90.011 72.968 162.979 162.979 162.979 90.01 0 162.978-72.968 162.978-162.979 0-90.01-72.968-162.978-162.978-162.978-90.011 0-162.979 72.968-162.979 162.978z"/></g><g filter="url(#kc)"><path d="M404.017 219.438c0 104.601-84.796 189.396-189.396 189.396-104.601 0-189.396-84.795-189.396-189.396 0-104.6 84.795-189.396 189.396-189.396 104.6 0 189.396 84.796 189.396 189.396zm-330.482 0c0 77.92 63.166 141.086 141.086 141.086 77.919 0 141.086-63.166 141.086-141.086 0-77.919-63.167-141.086-141.086-141.086-77.92 0-141.086 63.167-141.086 141.086z"/></g><g filter="url(#ke)"><path d="M332.177 218.785c0 86.206-69.883 156.089-156.089 156.089C89.883 374.874 20 304.991 20 218.785 20 132.58 89.883 62.697 176.088 62.697c86.206 0 156.089 69.883 156.089 156.088zm-272.363 0c0 64.217 52.058 116.275 116.274 116.275 64.217 0 116.275-52.058 116.275-116.275 0-64.216-52.058-116.274-116.275-116.274-64.216 0-116.274 52.058-116.274 116.274z"/></g><g filter="url(#kg)"><path d="M266.868 210.948c0 66.728-54.094 120.822-120.822 120.822-66.728 0-120.821-54.094-120.821-120.822 0-66.728 54.093-120.822 120.821-120.822s120.822 54.094 120.822 120.822zm-210.825 0c0 49.707 40.296 90.003 90.003 90.003 49.708 0 90.003-40.296 90.003-90.003s-40.295-90.003-90.003-90.003c-49.707 0-90.003 40.296-90.003 90.003z"/></g><g filter="url(#ki)"><path d="M215.927 211.601c0 51.94-42.105 94.045-94.045 94.045-51.94 0-94.045-42.105-94.045-94.045 0-51.939 42.105-94.045 94.045-94.045 51.94 0 94.045 42.106 94.045 94.045zm-164.101 0c0 38.691 31.365 70.057 70.056 70.057s70.057-31.366 70.057-70.057-31.366-70.056-70.057-70.056-70.056 31.365-70.056 70.056z"/></g><defs><linearGradient id="kb" x1="266.215" y1="0" x2="266.215" y2="437.57" gradientUnits="userSpaceOnUse"><stop stop-color="#C517F1"/><stop offset=".677" stop-color="#5AFFFF"/><stop offset="1" stop-color="#E91ED5"/></linearGradient><linearGradient id="kd" x1="214.621" y1="30.042" x2="214.621" y2="408.834" gradientUnits="userSpaceOnUse"><stop stop-color="#C517F1"/><stop offset=".677" stop-color="#5AFFFF"/><stop offset="1" stop-color="#E91ED5"/></linearGradient><linearGradient id="kf" x1="176.088" y1="62.697" x2="176.088" y2="374.874" gradientUnits="userSpaceOnUse"><stop stop-color="#C517F1"/><stop offset=".677" stop-color="#5AFFFF"/><stop offset="1" stop-color="#E91ED5"/></linearGradient><linearGradient id="kh" x1="146.046" y1="90.126" x2="146.046" y2="331.77" gradientUnits="userSpaceOnUse"><stop stop-color="#C517F1"/><stop offset=".677" stop-color="#5AFFFF"/><stop offset="1" stop-color="#E91ED5"/></linearGradient><linearGradient id="kj" x1="121.882" y1="117.556" x2="121.882" y2="305.646" gradientUnits="userSpaceOnUse"><stop stop-color="#C517F1"/><stop offset=".677" stop-color="#5AFFFF"/><stop offset="1" stop-color="#E91ED5"/></linearGradient><filter id="ka" x="47.43" y="0" width="444.101" height="442.795" filterUnits="userSpaceOnUse" color-interpolation-filters="sRGB"><feFlood flood-opacity="0" result="BackgroundImageFix"/><feBlend in="SourceGraphic" in2="BackgroundImageFix" result="shape"/><feColorMatrix in="SourceAlpha" values="0 0 0 0 0 0 0 0 0 0 0 0 0 0 0 0 0 0 127 0" result="hardAlpha"/><feOffset dy="5.225"/><feGaussianBlur stdDeviation="2.612"/><feComposite in2="hardAlpha" operator="arithmetic" k2="-1" k3="1"/><feColorMatrix values="0 0 0 0 0.894184 0 0 0 0 0.416295 0 0 0 0 0.147483 0 0 0 1 0"/><feBlend in2="shape" result="effect1_innerShadow_107_1292"/><feColorMatrix in="SourceAlpha" values="0 0 0 0 0 0 0 0 0 0 0 0 0 0 0 0 0 0 127 0" result="hardAlpha"/><feOffset dy="5.225"/><feGaussianBlur stdDeviation="9.143"/><feComposite in2="hardAlpha" operator="arithmetic" k2="-1" k3="1"/><feColorMatrix values="0 0 0 0 0.760521 0 0 0 0 0.964479 0 0 0 0 0.891054 0 0 0 1 0"/><feBlend in2="effect1_innerShadow_107_1292" result="effect2_innerShadow_107_1292"/><feColorMatrix in="SourceAlpha" values="0 0 0 0 0 0 0 0 0 0 0 0 0 0 0 0 0 0 127 0" result="hardAlpha"/><feOffset dx="6.531" dy="5.225"/><feGaussianBlur stdDeviation="19.593"/><feComposite in2="hardAlpha" operator="arithmetic" k2="-1" k3="1"/><feColorMatrix values="0 0 0 0 0.871076 0 0 0 0 0.34559 0 0 0 0 0.660882 0 0 0 1 0"/><feBlend in2="effect2_innerShadow_107_1292" result="effect3_innerShadow_107_1292"/></filter><filter id="kc" x="13.469" y="19.593" width="423.202" height="423.202" filterUnits="userSpaceOnUse" color-interpolation-filters="sRGB"><feFlood flood-opacity="0" result="BackgroundImageFix"/><feColorMatrix in="SourceAlpha" values="0 0 0 0 0 0 0 0 0 0 0 0 0 0 0 0 0 0 127 0" result="hardAlpha"/><feOffset dx="10.449" dy="11.756"/><feGaussianBlur stdDeviation="11.102"/><feComposite in2="hardAlpha" operator="out"/><feColorMatrix values="0 0 0 0 0 0 0 0 0 0 0 0 0 0 0 0 0 0 0.8 0"/><feBlend in2="BackgroundImageFix" result="effect1_dropShadow_107_1292"/><feBlend in="SourceGraphic" in2="effect1_dropShadow_107_1292" result="shape"/><feColorMatrix in="SourceAlpha" values="0 0 0 0 0 0 0 0 0 0 0 0 0 0 0 0 0 0 127 0" result="hardAlpha"/><feOffset dy="4.523"/><feGaussianBlur stdDeviation="2.261"/><feComposite in2="hardAlpha" operator="arithmetic" k2="-1" k3="1"/><feColorMatrix values="0 0 0 0 0.894184 0 0 0 0 0.416295 0 0 0 0 0.147483 0 0 0 1 0"/><feBlend in2="shape" result="effect2_innerShadow_107_1292"/><feColorMatrix in="SourceAlpha" values="0 0 0 0 0 0 0 0 0 0 0 0 0 0 0 0 0 0 127 0" result="hardAlpha"/><feOffset dy="4.523"/><feGaussianBlur stdDeviation="7.915"/><feComposite in2="hardAlpha" operator="arithmetic" k2="-1" k3="1"/><feColorMatrix values="0 0 0 0 0.760521 0 0 0 0 0.964479 0 0 0 0 0.891054 0 0 0 1 0"/><feBlend in2="effect2_innerShadow_107_1292" result="effect3_innerShadow_107_1292"/><feColorMatrix in="SourceAlpha" values="0 0 0 0 0 0 0 0 0 0 0 0 0 0 0 0 0 0 127 0" result="hardAlpha"/><feOffset dx="5.654" dy="4.523"/><feGaussianBlur stdDeviation="16.961"/><feComposite in2="hardAlpha" operator="arithmetic" k2="-1" k3="1"/><feColorMatrix values="0 0 0 0 0.871076 0 0 0 0 0.34559 0 0 0 0 0.660882 0 0 0 1 0"/><feBlend in2="effect3_innerShadow_107_1292" result="effect4_innerShadow_107_1292"/></filter><filter id="ke" x=".407" y="43.104" width="361.812" height="361.812" filterUnits="userSpaceOnUse" color-interpolation-filters="sRGB"><feFlood flood-opacity="0" result="BackgroundImageFix"/><feColorMatrix in="SourceAlpha" values="0 0 0 0 0 0 0 0 0 0 0 0 0 0 0 0 0 0 127 0" result="hardAlpha"/><feOffset dx="5.225" dy="5.225"/><feGaussianBlur stdDeviation="12.409"/><feComposite in2="hardAlpha" operator="out"/><feColorMatrix values="0 0 0 0 0 0 0 0 0 0 0 0 0 0 0 0 0 0 1 0"/><feBlend in2="BackgroundImageFix" result="effect1_dropShadow_107_1292"/><feBlend in="SourceGraphic" in2="effect1_dropShadow_107_1292" result="shape"/><feColorMatrix in="SourceAlpha" values="0 0 0 0 0 0 0 0 0 0 0 0 0 0 0 0 0 0 127 0" result="hardAlpha"/><feOffset dy="3.727"/><feGaussianBlur stdDeviation="1.864"/><feComposite in2="hardAlpha" operator="arithmetic" k2="-1" k3="1"/><feColorMatrix values="0 0 0 0 0.894184 0 0 0 0 0.416295 0 0 0 0 0.147483 0 0 0 1 0"/><feBlend in2="shape" result="effect2_innerShadow_107_1292"/><feColorMatrix in="SourceAlpha" values="0 0 0 0 0 0 0 0 0 0 0 0 0 0 0 0 0 0 127 0" result="hardAlpha"/><feOffset dy="3.727"/><feGaussianBlur stdDeviation="6.523"/><feComposite in2="hardAlpha" operator="arithmetic" k2="-1" k3="1"/><feColorMatrix values="0 0 0 0 0.760521 0 0 0 0 0.964479 0 0 0 0 0.891054 0 0 0 1 0"/><feBlend in2="effect2_innerShadow_107_1292" result="effect3_innerShadow_107_1292"/><feColorMatrix in="SourceAlpha" values="0 0 0 0 0 0 0 0 0 0 0 0 0 0 0 0 0 0 127 0" result="hardAlpha"/><feOffset dx="4.659" dy="3.727"/><feGaussianBlur stdDeviation="13.978"/><feComposite in2="hardAlpha" operator="arithmetic" k2="-1" k3="1"/><feColorMatrix values="0 0 0 0 0.871076 0 0 0 0 0.34559 0 0 0 0 0.660882 0 0 0 1 0"/><feBlend in2="effect3_innerShadow_107_1292" result="effect4_innerShadow_107_1292"/></filter><filter id="kg" x="25.225" y="90.126" width="245.25" height="244.529" filterUnits="userSpaceOnUse" color-interpolation-filters="sRGB"><feFlood flood-opacity="0" result="BackgroundImageFix"/><feBlend in="SourceGraphic" in2="BackgroundImageFix" result="shape"/><feColorMatrix in="SourceAlpha" values="0 0 0 0 0 0 0 0 0 0 0 0 0 0 0 0 0 0 127 0" result="hardAlpha"/><feOffset dy="2.885"/><feGaussianBlur stdDeviation="1.443"/><feComposite in2="hardAlpha" operator="arithmetic" k2="-1" k3="1"/><feColorMatrix values="0 0 0 0 0.894184 0 0 0 0 0.416295 0 0 0 0 0.147483 0 0 0 1 0"/><feBlend in2="shape" result="effect1_innerShadow_107_1292"/><feColorMatrix in="SourceAlpha" values="0 0 0 0 0 0 0 0 0 0 0 0 0 0 0 0 0 0 127 0" result="hardAlpha"/><feOffset dy="2.885"/><feGaussianBlur stdDeviation="5.049"/><feComposite in2="hardAlpha" operator="arithmetic" k2="-1" k3="1"/><feColorMatrix values="0 0 0 0 0.760521 0 0 0 0 0.964479 0 0 0 0 0.891054 0 0 0 1 0"/><feBlend in2="effect1_innerShadow_107_1292" result="effect2_innerShadow_107_1292"/><feColorMatrix in="SourceAlpha" values="0 0 0 0 0 0 0 0 0 0 0 0 0 0 0 0 0 0 127 0" result="hardAlpha"/><feOffset dx="3.607" dy="2.885"/><feGaussianBlur stdDeviation="10.82"/><feComposite in2="hardAlpha" operator="arithmetic" k2="-1" k3="1"/><feColorMatrix values="0 0 0 0 0.871076 0 0 0 0 0.34559 0 0 0 0 0.660882 0 0 0 1 0"/><feBlend in2="effect2_innerShadow_107_1292" result="effect3_innerShadow_107_1292"/></filter><filter id="ki" x="27.837" y="117.556" width="190.897" height="190.336" filterUnits="userSpaceOnUse" color-interpolation-filters="sRGB"><feFlood flood-opacity="0" result="BackgroundImageFix"/><feBlend in="SourceGraphic" in2="BackgroundImageFix" result="shape"/><feColorMatrix in="SourceAlpha" values="0 0 0 0 0 0 0 0 0 0 0 0 0 0 0 0 0 0 127 0" result="hardAlpha"/><feOffset dy="2.246"/><feGaussianBlur stdDeviation="1.123"/><feComposite in2="hardAlpha" operator="arithmetic" k2="-1" k3="1"/><feColorMatrix values="0 0 0 0 0.894184 0 0 0 0 0.416295 0 0 0 0 0.147483 0 0 0 1 0"/><feBlend in2="shape" result="effect1_innerShadow_107_1292"/><feColorMatrix in="SourceAlpha" values="0 0 0 0 0 0 0 0 0 0 0 0 0 0 0 0 0 0 127 0" result="hardAlpha"/><feOffset dy="2.246"/><feGaussianBlur stdDeviation="3.93"/><feComposite in2="hardAlpha" operator="arithmetic" k2="-1" k3="1"/><feColorMatrix values="0 0 0 0 0.760521 0 0 0 0 0.964479 0 0 0 0 0.891054 0 0 0 1 0"/><feBlend in2="effect1_innerShadow_107_1292" result="effect2_innerShadow_107_1292"/><feColorMatrix in="SourceAlpha" values="0 0 0 0 0 0 0 0 0 0 0 0 0 0 0 0 0 0 127 0" result="hardAlpha"/><feOffset dx="2.807" dy="2.246"/><feGaussianBlur stdDeviation="8.422"/><feComposite in2="hardAlpha" operator="arithmetic" k2="-1" k3="1"/><feColorMatrix values="0 0 0 0 0.871076 0 0 0 0 0.34559 0 0 0 0 0.660882 0 0 0 1 0"/><feBlend in2="effect2_innerShadow_107_1292" result="effect3_innerShadow_107_1292"/></filter></defs></svg><svg viewBox="0 0 28 26" id="Star_1_(1)" xmlns="http://www.w3.org/2000/svg"><path d="M14 .5l3.143 9.674h10.172l-8.23 5.979 3.144 9.673L14 19.847l-8.229 5.98 3.143-9.675-8.229-5.978h10.172L14 .5z"/><defs><linearGradient id="la" x1="14" y1=".5" x2="14" y2="28.5" gradientUnits="userSpaceOnUse"><stop stop-color="#5D2AF0"/><stop offset="1" stop-color="#5AFFFF"/></linearGradient></defs></svg><svg viewBox="0 0 24 19" id="Vector_1" xmlns="http://www.w3.org/2000/svg"><path d="M23 2.5C19.833 1.333 13.5.6 13.5 7s-6 4.5-9.5 4.5-2.8.1-2 6.5"/></svg><svg viewBox="0 0 502.664 502.664" id="icon" xmlns="http://www.w3.org/2000/svg"><path d="M153.821 358.226L0 274.337v-46.463l153.821-83.414v54.574L46.636 250.523l107.185 53.431v54.272zm26.273 29.358L282.103 115.08h32.227L212.084 387.584h-31.99zm168.749-29.358v-54.272l107.164-52.999-107.164-52.59v-53.927l153.821 83.522v46.183l-153.821 84.083z"/></svg></svg>